# xmcd
#
# Track frame offsets:
#	150
#	15600
#	28836
#	48102
#	65769
#	80316
#	96141
#	111338
#	129928
#	143139
#	158589
#	171825
#	191091
#	208758
#	223305
#	239130
#	254327
#	272917
#
# Disc length: 3815
#
# Revision: 2
# Processed by: cddbd v1.5.2PL0 Copyright (c) Steve Scherf et al.
# Submitted via: kJams Pro (development) 1.0patch49.33
#
DISCID=0d0ee512
DTITLE=Various Artist - PHM July 2002
DYEAR=2002
DGENRE=karaoke
TTITLE0=Jo Dee Messina - Dare To Dream
TTITLE1=Brooks and Dunn - My Heart Is Lost To You
TTITLE2=Martina McBride - Where Would You Be
TTITLE3=Diamond Rio - Beautiful Mess
TTITLE4=Marie Sisters - Real Bad Mood
TTITLE5=Kenny Chesney - The Good Stuff
TTITLE6=Sixwire - Look At Me Now
TTITLE7=Kenny Rogers - Harder Cards
TTITLE8=Hometown News - Minivan
TTITLE9=Jo Dee Messina - Dare To Dream (Vocal)
TTITLE10=Brooks and Dunn - My Heart Is Lost To You (Vocal)
TTITLE11=Martina McBride - Where Would You Be (Vocal)
TTITLE12=Diamond Rio - Beautiful Mess (Vocal)
TTITLE13=Marie Sisters - Real Bad Mood (Vocal)
TTITLE14=Kenny Chesney - The Good Stuff (Vocal)
TTITLE15=Sixwire - Look At Me Now (Vocal)
TTITLE16=Kenny Rogers - Harder Cards (Vocal)
TTITLE17=Hometown News - Minivan (Vocal)
EXTD=
EXTT0=
EXTT1=
EXTT2=
EXTT3=
EXTT4=
EXTT5=
EXTT6=
EXTT7=
EXTT8=
EXTT9=
EXTT10=
EXTT11=
EXTT12=
EXTT13=
EXTT14=
EXTT15=
EXTT16=
EXTT17=
PLAYORDER=
